<svg width="22.750000" height="20.999451" viewBox="0 0 22.75 20.9995" fill="none" xmlns="http://www.w3.org/2000/svg" xmlns:xlink="http://www.w3.org/1999/xlink">
	<desc>
			Created with Pixso.
	</desc>
	<defs/>
	<path id="Vector" d="M10.96 20.89L10.95 20.89L10.92 20.87C10.77 20.79 10.62 20.71 10.48 20.62C8.7 19.56 7.04 18.32 5.52 16.92C2.84 14.42 0 10.7 0 6.12C0 2.7 2.87 9.15e-5 6.34 9.15e-5C7.3 -0.01 8.26 0.2 9.13 0.62C10 1.03 10.77 1.64 11.37 2.39C11.97 1.64 12.74 1.03 13.61 0.62C14.48 0.2 15.44 -0.01 16.4 9.15e-5C19.87 9.15e-5 22.75 2.7 22.75 6.12C22.75 10.7 19.9 14.42 17.22 16.92C15.7 18.32 14.04 19.56 12.26 20.62C12.12 20.7 11.97 20.79 11.82 20.87L11.79 20.89L11.78 20.89L11.78 20.89C11.65 20.96 11.51 20.99 11.37 20.99C11.23 20.99 11.09 20.96 10.96 20.89L10.96 20.89Z" fill="#FFFFFF" fill-opacity="1.000000" fill-rule="nonzero"/>
</svg>
